<svg xmlns="http://www.w3.org/2000/svg" version="1.1" xmlns:xlink="http://www.w3.org/1999/xlink" xmlns:svgjs="http://svgjs.dev/svgjs" viewBox="0 0 800 800"><g transform="matrix(1,0,0,1,0,0)"><circle r="60.5" cx="728" cy="615" stroke-width="3.5" stroke="#ff3895" fill="none" opacity="0.1" transform="matrix(-0.15645829439629014,0.984807753012208,-0.9878387932280509,-0.1736481776669303,852.7322269833727,75.53616986188888)"></circle><circle r="67.38461538461539" cx="704.1538461538462" cy="584.1538461538462" stroke-width="4.461538461538462" stroke="#f744a0" fill="none" opacity="0.16923076923076924" transform="matrix(-0.02416688149386992,0.9991889981715696,-0.9998377680551629,-0.04026594010941512,804.8247418573694,16.430776775138156)"></circle><circle r="74.26923076923077" cx="680.3076923076923" cy="553.3076923076923" stroke-width="5.423076923076923" stroke="#ee4eaa" fill="none" opacity="0.23846153846153847" transform="matrix(0.10854505997930176,0.9955871979429187,-0.9942012374424537,0.0938409894031795,749.9283285924541,-35.77127493843932)"></circle><circle r="81.15384615384616" cx="656.4615384615385" cy="522.4615384615385" stroke-width="6.384615384615385" stroke="#e558b3" fill="none" opacity="0.3076923076923077" transform="matrix(0.239337233872041,0.9740671762355546,-0.9710293286703385,0.2262590024297223,688.9507552016476,-80.13047146611075)"></circle><circle r="88.03846153846155" cx="632.6153846153846" cy="491.61538461538464" stroke-width="7.346153846153847" stroke="#dc60bc" fill="none" opacity="0.3769230769230769" transform="matrix(0.3659032836688492,0.9350162426854148,-0.9307313260427595,0.35460488704253557,622.9104719758618,-115.84845189118016)"></circle><circle r="94.92307692307693" cx="608.7692307692307" cy="460.7692307692308" stroke-width="8.307692307692307" stroke="#d367c5" fill="none" opacity="0.4461538461538461" transform="matrix(0.4860114456457981,0.8791372219950947,-0.8740184446850369,0.4765687200213078,552.9203851816519,-142.28237680656093)"></circle><circle r="101.8076923076923" cx="584.9230769230769" cy="429.9230769230769" stroke-width="9.26923076923077" stroke="#c96fcd" fill="none" opacity="0.5153846153846154" transform="matrix(0.5975438859723661,0.8074358047468067,-0.8018912835071507,0.5899554400231231,480.1697709957393,-158.95649790797188)"></circle><circle r="108.6923076923077" cx="561.0769230769231" cy="399.0769230769231" stroke-width="10.23076923076923" stroke="#be75d5" fill="none" opacity="0.5846153846153846" transform="matrix(0.6985340286849785,0.7212024473438146,-0.7156221785929423,0.6927243535095994,405.90460642627545,-165.5707203413656)"></circle><circle r="115.57692307692308" cx="537.2307692307693" cy="368.2307692307692" stroke-width="11.192307692307693" stroke="#b37bdc" fill="none" opacity="0.6538461538461539" transform="matrix(0.7872012168740704,0.621989146838704,-0.616732768104804,0.7830258624176223,331.4066243894388,-162.0060037025305)"></circle><circle r="122.46153846153847" cx="513.3846153846154" cy="337.38461538461536" stroke-width="12.153846153846153" stroke="#a781e4" fill="none" opacity="0.7230769230769231" transform="matrix(0.8619820964247153,0.51158150864681,-0.5069671641406113,0.8592347525622168,257.9714495047878,-148.32650448361073)"></circle><circle r="129.34615384615387" cx="489.53846153846155" cy="306.53846153846155" stroke-width="13.115384615384615" stroke="#9a87eb" fill="none" opacity="0.7923076923076923" transform="matrix(0.9215581694033287,0.39196660986007514,-0.38826120435975076,0.9199794436588242,186.88617025651706,-124.77842140755979)"></circle><circle r="136.23076923076923" cx="465.6923076923077" cy="275.6923076923077" stroke-width="14.076923076923077" stroke="#8c8df2" fill="none" opacity="0.8615384615384616" transform="matrix(0.9648790316723614,0.26529723654590076,-0.26270832524573623,0.9641666745335624,119.40674258781536,-91.78556443178525)"></circle><circle r="143.1153846153846" cx="441.8461538461538" cy="244.8461538461538" stroke-width="15.038461538461538" stroke="#7d92f8" fill="none" opacity="0.9307692307692308" transform="matrix(0.9911808853526503,0.1338531386752616,-0.1325226583782635,0.9910011792459085,56.73561832553116,-49.94172716846805)"></circle><circle r="150" cx="418" cy="214" stroke-width="16" stroke="#6b97ff" fill="none" opacity="1" transform="matrix(1,0,0,1,0,0)"></circle></g></svg>